<?xml version="1.0" standalone="no"?>
<!DOCTYPE svg PUBLIC "-//W3C//DTD SVG 20010904//EN"
 "http://www.w3.org/TR/2001/REC-SVG-20010904/DTD/svg10.dtd">
<svg version="1.0" xmlns="http://www.w3.org/2000/svg"
 width="591.000000pt" height="422.000000pt" viewBox="0 0 591.000000 422.000000"
 preserveAspectRatio="xMidYMid meet">

<g transform="translate(0.000000,422.000000) scale(0.100000,-0.100000)"
fill="#000000" stroke="none">
<path d="M2715 2946 c-78 -45 -139 -96 -181 -149 -89 -112 -119 -200 -118
-337 1 -113 26 -202 78 -285 40 -62 105 -127 119 -118 10 6 8 14 -22 93 -12
30 -21 67 -21 83 0 23 -7 31 -35 43 -46 19 -46 51 0 124 27 42 35 65 35 101 0
27 -5 51 -11 55 -8 5 -10 35 -6 93 4 68 10 97 32 139 29 53 96 122 147 148 15
8 28 17 28 19 0 8 -24 4 -45 -9z"/>
<path d="M2844 2895 c-11 -27 9 -37 54 -27 60 14 262 15 262 3 0 -6 8 -11 19
-11 61 0 124 -58 103 -96 -27 -51 -53 -61 -157 -67 l-100 -4 -38 32 c-35 30
-45 33 -125 38 -48 3 -97 8 -108 12 -27 8 -41 -22 -20 -43 12 -13 17 -12 37 2
36 25 139 22 174 -6 23 -18 25 -22 11 -30 -9 -5 -25 -7 -35 -3 -21 6 -51 -3
-51 -16 0 -5 36 -9 80 -9 93 0 105 -11 70 -60 -18 -26 -28 -30 -66 -30 -24 0
-53 5 -63 12 -25 15 -51 4 -51 -23 0 -19 4 -21 38 -15 20 3 61 6 89 6 51 0 54
2 83 43 55 76 57 77 107 77 58 0 95 -9 87 -21 -3 -5 -16 -9 -30 -9 -42 0 -27
-39 28 -73 15 -9 34 -17 42 -17 19 0 66 -50 66 -70 -1 -8 -9 -26 -20 -38 -20
-24 -20 -24 -217 -21 -196 4 -224 -1 -189 -30 11 -9 29 -9 81 0 79 13 96 5 70
-35 -17 -25 -21 -26 -111 -26 -51 0 -95 -4 -98 -9 -6 -9 177 -21 200 -13 6 1
26 23 44 48 32 42 36 44 84 43 28 -1 65 -5 81 -9 l30 -8 -27 -1 c-15 0 -42
-14 -59 -29 -31 -28 -32 -29 -15 -55 27 -40 8 -89 -42 -106 -20 -7 -74 -31
-119 -52 -70 -33 -86 -46 -103 -79 -12 -24 -20 -59 -20 -89 l0 -50 53 5 c118
12 216 48 296 111 244 192 268 554 51 777 l-59 61 -183 6 c-101 3 -193 9 -205
13 -17 6 -24 4 -29 -9z"/>
<path d="M3055 2811 c-4 -8 24 -11 91 -11 54 0 95 2 93 4 -11 10 -177 17 -184
7z"/>
<path d="M2775 2515 c25 -9 104 -12 99 -4 -3 5 -29 9 -57 8 -29 0 -47 -2 -42
-4z"/>
<path d="M2993 2513 c54 -2 139 -2 190 0 51 1 7 3 -98 3 -104 0 -146 -2 -92
-3z"/>
<path d="M3298 2513 c7 -3 16 -2 19 1 4 3 -2 6 -13 5 -11 0 -14 -3 -6 -6z"/>
<path d="M3010 2250 c0 -6 33 -10 80 -10 47 0 80 4 80 10 0 6 -33 10 -80 10
-47 0 -80 -4 -80 -10z"/>
<path d="M2750 1972 c0 -13 18 -19 85 -28 46 -6 49 -5 34 10 -18 19 -119 35
-119 18z"/>
<path d="M3004 1800 c-137 -7 -144 -13 -144 -130 0 -118 2 -120 152 -120 90 0
117 3 121 14 3 8 3 17 0 20 -4 3 -53 6 -109 6 -94 0 -104 2 -114 21 -22 41 -9
46 104 41 94 -4 106 -3 112 13 11 29 -16 36 -113 32 -71 -3 -96 -1 -104 10 -9
10 -8 18 6 33 16 17 31 20 117 20 89 0 98 2 98 19 0 25 -9 27 -126 21z"/>
<path d="M3449 1802 c-1 -4 -2 -48 -3 -99 0 -50 -4 -95 -8 -99 -11 -10 -33 11
-72 69 -30 46 -46 68 -87 115 -6 8 -27 12 -52 10 l-42 -3 -3 -122 -3 -123 26
0 25 0 0 105 c0 112 8 125 43 66 9 -16 32 -48 50 -70 17 -22 42 -54 55 -71 20
-25 30 -30 67 -30 l44 0 3 93 c4 126 0 154 -23 160 -10 3 -19 2 -20 -1z"/>
<path d="M3703 1803 c-27 -5 -25 4 -28 -140 -3 -116 2 -131 40 -117 12 5 15
26 15 101 0 119 12 118 60 -1 37 -94 54 -111 98 -101 24 5 34 19 67 93 63 142
70 143 66 8 -3 -98 3 -112 39 -101 18 6 20 15 20 108 0 146 -2 149 -62 145
-50 -3 -50 -3 -70 -53 -11 -27 -28 -70 -38 -95 -28 -70 -42 -63 -85 42 -21 51
-41 96 -44 100 -9 10 -53 16 -78 11z"/>
<path d="M4126 1793 c-3 -10 -4 -60 -1 -112 5 -130 9 -134 153 -135 61 -1 113
2 117 6 4 4 5 14 2 23 -5 12 -24 15 -94 15 -48 0 -95 5 -103 10 -11 7 -16 35
-20 107 -5 91 -7 98 -27 101 -14 2 -23 -3 -27 -15z"/>
<path d="M1930 1793 c-24 -10 -40 -30 -40 -50 0 -11 -4 -23 -9 -28 -23 -24
-10 -135 15 -135 8 0 14 -6 14 -13 0 -11 25 -14 110 -16 106 -2 110 -1 110 19
0 20 -5 21 -99 19 -113 -2 -144 10 -130 49 8 21 14 22 114 22 87 0 105 3 105
15 0 12 -18 15 -104 15 -87 0 -105 3 -110 16 -4 10 -1 26 7 37 12 18 23 20
110 18 92 -2 97 -1 97 18 0 20 -6 21 -87 20 -49 0 -95 -3 -103 -6z"/>
<path d="M2206 1779 c10 -12 31 -35 47 -51 15 -17 27 -38 27 -47 0 -9 -24 -42
-53 -74 -49 -52 -52 -57 -30 -57 16 0 39 16 66 45 24 25 50 45 59 45 9 0 34
-21 57 -46 31 -36 45 -45 66 -42 26 3 26 4 -29 59 -31 31 -56 61 -56 66 0 6
25 35 57 66 53 54 55 57 29 57 -16 0 -35 -10 -49 -26 -12 -14 -34 -35 -49 -46
l-28 -19 -46 45 c-25 25 -55 46 -67 46 -20 0 -20 0 -1 -21z"/>
<path d="M2553 1790 c-30 -12 -41 -37 -44 -100 -3 -72 8 -118 31 -130 10 -6
70 -10 133 -10 131 0 127 -3 127 89 l0 58 -75 -2 c-108 -2 -130 -33 -28 -39
77 -5 73 -3 62 -36 l-11 -30 -81 0 c-45 0 -88 4 -94 8 -7 5 -16 35 -19 68 -9
88 -1 94 137 94 102 0 109 1 109 20 0 19 -6 20 -112 19 -62 0 -123 -4 -135 -9z"/>
<path d="M1781 1774 c0 -11 3 -14 6 -6 3 7 2 16 -1 19 -3 4 -6 -2 -5 -13z"/>
<path d="M1783 1690 c0 -30 2 -43 4 -27 2 15 2 39 0 55 -2 15 -4 2 -4 -28z"/>
</g>
</svg>
